<?xml version="1.0" encoding="utf-8"?>
<svg viewBox="178.425 71.72 256.91 258.892" width="256.91" height="258.892" xmlns="http://www.w3.org/2000/svg">
  <rect width="640" height="400" x="0" y="0" opacity="1" fill="#ffffff" data-fill-palette-color="background" id="background"/>
  <g id="tight-bounds" transform="matrix(1, 0, 0, 1, 122.239998, 76.400002)">
    <svg viewBox="0 0 395.52 247.2" height="247.2" width="395.52">
      <g>
        <svg/>
      </g>
      <g>
        <svg viewBox="0 0 395.52 247.2" height="247.2" width="395.52">
          <g transform="matrix(1,0,0,1,132.29419045315842,47.215199999999996)">
            <svg viewBox="0 0 130.93161909368317 152.7696" height="152.7696" width="130.93161909368317">
              <g>
                <svg viewBox="0 0 130.93161909368317 152.7696" height="152.7696" width="130.93161909368317">
                  <g>
                    <svg viewBox="0 0 241.2569332760548 281.4959858354623" height="152.7696" width="130.93161909368317">
                      <g>
                        <svg viewBox="0 0 241.2569332760548 281.4959858354623" height="281.4959858354623" width="241.2569332760548">
                          <g>
                            <svg viewBox="0 0 241.2569332760548 281.4959858354623" height="281.4959858354623" width="241.2569332760548">
                              <g>
                                <svg viewBox="0 0 241.2569332760548 151.825483872" height="151.825483872" width="241.2569332760548">
                                  <g transform="matrix(1,0,0,1,0,0)">
                                    <svg width="241.2569332760548" viewBox="4.449999809265137 -32.45000076293945 52.20000076293945 32.85000228881836" height="151.825483872" data-palette-color="#323660">
                                      <path d="M30.15-32.1L29.9-10.1 30.05 0 24.9 0 25.15-9.65 25.1-14 16.9-14.05 9.4-14 9.35-10.1 9.55 0 4.45 0 4.65-9.65 4.45-32.1 9.6-32.1 9.45-18.3 17.3-18.2 25.05-18.3 24.9-32.1 30.15-32.1ZM48.15-32.45Q51.95-32.45 55.75-30.85L55.75-30.85 54.9-26.15 54.1-25.85Q52.5-27 50.8-27.65 49.1-28.3 47.55-28.3L47.55-28.3Q45.1-28.3 43.65-26.95 42.2-25.6 42.2-23.8L42.2-23.8Q42.2-22.05 43.65-20.93 45.1-19.8 48.2-18.35L48.2-18.35Q50.9-17.05 52.57-16 54.25-14.95 55.45-13.23 56.65-11.5 56.65-9.1L56.65-9.1Q56.65-6.5 55.22-4.33 53.8-2.15 51.22-0.88 48.65 0.4 45.35 0.4L45.35 0.4Q43.15 0.4 40.8-0.15 38.45-0.7 36.35-1.75L36.35-1.75 37-6.85 37.65-7.15Q39.5-5.4 41.72-4.53 43.95-3.65 45.85-3.65L45.85-3.65Q48.45-3.65 50-5.03 51.55-6.4 51.55-8.3L51.55-8.3Q51.55-10.2 50.05-11.38 48.55-12.55 45.45-14L45.45-14Q42.8-15.25 41.15-16.28 39.5-17.3 38.32-19 37.15-20.7 37.15-23.1L37.15-23.1Q37.15-25.7 38.55-27.85 39.95-30 42.45-31.23 44.95-32.45 48.15-32.45L48.15-32.45Z" opacity="1" transform="matrix(1,0,0,1,0,0)" fill="#323660" class="undefined-text-0" data-fill-palette-color="primary" id="text-0"/>
                                    </svg>
                                  </g>
                                </svg>
                              </g>
                              <g transform="matrix(1,0,0,1,0,187.66783680256628)">
                                <svg viewBox="0 0 241.2569332760548 93.82814903289601" height="93.82814903289601" width="241.2569332760548">
                                  <g transform="matrix(1,0,0,1,0,0)">
                                    <svg width="241.2569332760548" viewBox="5.25 -35.77000045776367 93.0199966430664 36.17000198364258" height="93.82814903289601" data-palette-color="#df5155">
                                      <path d="M32.55-35.38L32.55 0 29.98 0 29.98-16.95 7.83-16.95 7.83 0 5.25 0 5.25-35.38 7.83-35.38 7.83-18.88 29.98-18.88 29.98-35.38 32.55-35.38ZM97.27-32.23L96.67-31.08Q96.44-30.65 96.02-30.65L96.02-30.65Q95.69-30.65 95.18-31.11 94.67-31.58 93.79-32.14 92.92-32.7 91.6-33.18 90.29-33.65 88.37-33.65L88.37-33.65Q86.44-33.65 84.98-33.1 83.52-32.55 82.53-31.6 81.54-30.65 81.03-29.4 80.52-28.15 80.52-26.78L80.52-26.78Q80.52-24.98 81.28-23.8 82.04-22.63 83.29-21.8 84.54-20.98 86.13-20.41 87.72-19.85 89.39-19.3 91.07-18.75 92.65-18.09 94.24-17.43 95.49-16.43 96.74-15.43 97.5-13.96 98.27-12.5 98.27-10.33L98.27-10.33Q98.27-8.1 97.5-6.14 96.74-4.17 95.29-2.73 93.84-1.28 91.74-0.44 89.64 0.4 86.94 0.4L86.94 0.4Q83.44 0.4 80.92-0.84 78.39-2.08 76.49-4.23L76.49-4.23 77.19-5.33Q77.49-5.7 77.89-5.7L77.89-5.7Q78.12-5.7 78.47-5.4 78.82-5.1 79.32-4.66 79.82-4.23 80.52-3.71 81.22-3.2 82.14-2.76 83.07-2.33 84.27-2.02 85.47-1.73 86.99-1.73L86.99-1.73Q89.09-1.73 90.74-2.36 92.39-3 93.53-4.1 94.67-5.2 95.27-6.71 95.87-8.22 95.87-9.95L95.87-9.95Q95.87-11.83 95.1-13.04 94.34-14.25 93.09-15.06 91.84-15.88 90.25-16.43 88.67-16.98 86.99-17.5 85.32-18.03 83.73-18.68 82.14-19.33 80.89-20.34 79.64-21.35 78.88-22.86 78.12-24.38 78.12-26.65L78.12-26.65Q78.12-28.43 78.79-30.08 79.47-31.73 80.77-32.99 82.07-34.25 83.98-35.01 85.89-35.77 88.34-35.77L88.34-35.77Q91.09-35.77 93.28-34.9 95.47-34.02 97.27-32.23L97.27-32.23Z" opacity="1" transform="matrix(1,0,0,1,0,0)" fill="#df5155" class="undefined-text-1" data-fill-palette-color="secondary" id="text-1"/>
                                    </svg>
                                  </g>
                                </svg>
                              </g>
                            </svg>
                          </g>
                        </svg>
                      </g>
                    </svg>
                  </g>
                </svg>
              </g>
            </svg>
          </g>
          <path d="M308.249 41.215L308.249 0 61.049 0 61.049 247.2 308.249 247.2 308.249 205.985 300.819 205.985 300.819 239.769 68.48 239.769 68.48 7.431 300.819 7.431 300.819 41.215Z" fill="#323660" stroke="transparent" data-fill-palette-color="primary"/>
        </svg>
      </g>
    </svg>
    <rect width="395.52" height="247.2" fill="none" stroke="none" visibility="hidden"/>
  </g>
</svg>